<svg xmlns="http://www.w3.org/2000/svg" width="500" height="500" style="">
      <g style="fill:none;stroke:#000000;stroke-width:10;stroke-linecap:round;stroke-linejoin:round;">
      <path d="M187,146 Q185,145, 184.5,144 Q184,143, 180.5,142 Q177,141, 174.5,140 Q172,139, 170,139 Q168,139, 166,138.5 Q164,138, 161.5,138.5 Q159,139, 157,140.5 Q155,142, 153,144 Q151,146, 149.5,148 Q148,150, 147,151.5 Q146,153, 145,154.5 Q144,156, 143.5,157.5 Q143,159, 142,160.5 Q141,162, 140,164 Q139,166, 137,167.5 Q135,169, 133,172 Q131,175, 129.5,177 Q128,179, 126,181 Q124,183, 123,185 Q122,187, 120.5,188 Q119,189, 117.5,190.5 Q116,192, 114.5,194 Q113,196, 112,197.5 Q111,199, 109,202" class="gptcmHgZ_0"></path>
<path d="M133,170 Q134,170, 136,170 Q138,170, 140,170.5 Q142,171, 143.5,171 Q145,171, 146.5,171.5 Q148,172, 149,172 Q150,172, 151,172 Q152,172, 153.5,172.5 Q155,173, 156.5,173.5 Q158,174, 158.5,174 Q159,174, 159.5,174 Q160,174, 160,174 Q160,174, 160.5,174.5 Q161,175, 161.5,175 Q162,175, 162.5,175 Q163,175, 163.5,175 Q164,175, 164,175 Q164,175, 165,175 Q166,175, 166.5,175 Q167,175, 167.5,175 Q168,175, 168,175 Q168,175, 169,175 Q170,175, 170.5,175 Q171,175, 172,175" class="gptcmHgZ_1"></path>
<path d="M188,174 Q188,175, 186.5,178.5 Q185,182, 183.5,185.5 Q182,189, 181,192 Q180,195, 179,197.5 Q178,200, 177.5,201.5 Q177,203, 177,203.5 Q177,204, 177,203.5 Q177,203, 178.5,201 Q180,199, 182,195 Q184,191, 187,187 Q190,183, 192,181 Q194,179, 194.5,178.5 Q195,178, 195.5,177.5 Q196,177, 196,177 Q196,177, 197,177 Q198,177, 199.5,177 Q201,177, 202.5,177 Q204,177, 205.5,177 Q207,177, 207,177.5 Q207,178, 207.5,178 Q208,178, 208,178 Q208,178, 208,178.5 Q208,179, 208.5,179 Q209,179, 209.5,180 Q210,181, 211,182" class="gptcmHgZ_2"></path>
<path d="M218,179 Q218,179, 217.5,180 Q217,181, 217,182 Q217,183, 217,185 Q217,187, 217,188 Q217,189, 217,191.5 Q217,194, 217,196 Q217,198, 217,199.5 Q217,201, 217,202.5 Q217,204, 216.5,204 Q216,204, 216,203.5 Q216,203, 219,199" class="gptcmHgZ_3"></path>
<path d="M226,163 Q228,163, 228,163 Q228,163, 230,163 Q232,163, 232,163 Q232,163, 232.5,163 Q233,163, 233.5,163 Q234,163, 234.5,163 Q235,163, 235,163 Q235,163, 235,163.5 Q235,164, 235,164.5 Q235,165, 235,166 Q235,167, 234.5,167.5 Q234,168, 234,168.5 Q234,169, 233.5,169 Q233,169, 233,168.5 Q233,168, 232.5,167.5 Q232,167, 232,167 Q232,167, 232,166" class="gptcmHgZ_4"></path>
<path d="M260,184 Q259,183, 257.5,183 Q256,183, 255,182 Q254,181, 251.5,180.5 Q249,180, 247,180 Q245,180, 242.5,180 Q240,180, 236.5,181.5 Q233,183, 231.5,183.5 Q230,184, 229,185.5 Q228,187, 227,188 Q226,189, 225,191 Q224,193, 223.5,194 Q223,195, 223,198.5 Q223,202, 223.5,204 Q224,206, 224.5,206.5 Q225,207, 226.5,208.5 Q228,210, 229,210.5 Q230,211, 231,211.5 Q232,212, 232.5,212.5 Q233,213, 234.5,213 Q236,213, 237,213.5 Q238,214, 240.5,214 Q243,214, 245,213 Q247,212, 249.5,211 Q252,210, 253,208.5 Q254,207, 256.5,205 Q259,203, 259.5,201.5 Q260,200, 262,198.5 Q264,197, 266,194.5 Q268,192, 270,189.5 Q272,187, 273.5,185 Q275,183, 277,179.5 Q279,176, 280,174 Q281,172, 281.5,169.5 Q282,167, 282,164.5 Q282,162, 282.5,160 Q283,158, 283,156.5 Q283,155, 283,153 Q283,151, 283,149.5 Q283,148, 283.5,146.5 Q284,145, 284,144 Q284,143, 284,142.5 Q284,142, 284,141.5 Q284,141, 284,141.5 Q284,142, 284,143 Q284,144, 283,147 Q282,150, 281.5,152 Q281,154, 281,154.5 Q281,155, 281,155 Q281,155, 280.5,155 Q280,155, 280,156 Q280,157, 280,157.5 Q280,158, 280,158.5 Q280,159, 280,159 Q280,159, 279.5,159.5 Q279,160, 278.5,161 Q278,162, 277.5,162.5 Q277,163, 277,163.5 Q277,164, 277,164.5 Q277,165, 276.5,165.5 Q276,166, 276,166.5 Q276,167, 276,167.5 Q276,168, 276,168.5 Q276,169, 276,169.5 Q276,170, 276,170.5 Q276,171, 276,171.5 Q276,172, 275.5,172.5 Q275,173, 275,174 Q275,175, 274.5,175.5 Q274,176, 274,177 Q274,178, 273.5,178.5 Q273,179, 273,180.5 Q273,182, 272.5,183 Q272,184, 271.5,185.5 Q271,187, 270.5,189 Q270,191, 270,192.5 Q270,194, 270,194.5 Q270,195, 269.5,197 Q269,199, 269,200 Q269,201, 269,202 Q269,203, 269.5,204.5 Q270,206, 270,206.5 Q270,207, 270.5,207.5 Q271,208, 271,209 Q271,210, 271,210.5 Q271,211, 271,211 Q271,211, 271,211.5 Q271,212, 271.5,212 Q272,212, 272,212.5 Q272,213, 272,213.5 Q272,214, 272,214 Q272,214, 272.5,214.5 Q273,215, 273,215 Q273,215, 273.5,215.5 Q274,216, 274.5,216 Q275,216, 275.5,217 Q276,218, 276,218 Q276,218, 276.5,218 Q277,218, 277.5,218.5 Q278,219, 278.5,219 Q279,219, 279.5,219 Q280,219, 280,218.5 Q280,218, 280,217.5 Q280,217, 280,216 Q280,215, 280,215" class="gptcmHgZ_5"></path>
<path d="M322,183 Q320,183, 319.5,182.5 Q319,182, 317.5,182 Q316,182, 315.5,182 Q315,182, 313.5,182.5 Q312,183, 311.5,183 Q311,183, 310,183.5 Q309,184, 307,185 Q305,186, 304,187 Q303,188, 302,188.5 Q301,189, 300.5,190 Q300,191, 300,191 Q300,191, 299.5,192.5 Q299,194, 298,196 Q297,198, 296.5,198.5 Q296,199, 296,200.5 Q296,202, 296,202.5 Q296,203, 296,204 Q296,205, 296,206 Q296,207, 296,207 Q296,207, 296,208.5 Q296,210, 296,211 Q296,212, 297,212.5 Q298,213, 298,213.5 Q298,214, 299,215 Q300,216, 300.5,216.5 Q301,217, 302.5,218 Q304,219, 304.5,219.5 Q305,220, 305.5,220.5 Q306,221, 306.5,221 Q307,221, 307.5,221 Q308,221, 309,221 Q310,221, 311,221 Q312,221, 312.5,221 Q313,221, 314,220.5 Q315,220, 316,219.5 Q317,219, 318,218 Q319,217, 319.5,216.5 Q320,216, 321,215 Q322,214, 322.5,213 Q323,212, 323.5,211.5 Q324,211, 325,209 Q326,207, 327,206 Q328,205, 328,204 Q328,203, 328.5,202 Q329,201, 329.5,200 Q330,199, 330.5,198 Q331,197, 331.5,196 Q332,195, 332,193.5 Q332,192, 332.5,190.5 Q333,189, 333.5,187.5 Q334,186, 334,185.5 Q334,185, 334,184.5 Q334,184, 334,185 Q334,186, 334,186.5 Q334,187, 334.5,189 Q335,191, 335.5,193 Q336,195, 336,198 Q336,201, 336.5,205 Q337,209, 337.5,211 Q338,213, 338.5,214 Q339,215, 339.5,215.5 Q340,216, 340,216.5 Q340,217, 340.5,218 Q341,219, 341.5,220.5 Q342,222, 343.5,223.5 Q345,225, 345.5,226 Q346,227, 347,227 Q348,227, 348,227.5 Q348,228, 348.5,228.5 Q349,229, 350,229.5 Q351,230, 352,230.5 Q353,231, 354,231 Q355,231, 355.5,231 Q356,231, 357,231 Q358,231, 359,229" class="gptcmHgZ_6"></path>
<path d="M371,139 Q370,143, 369.5,147 Q369,151, 369,155.5 Q369,160, 369,164 Q369,168, 369,171.5 Q369,175, 370,178 Q371,181, 371,182 Q371,183, 371.5,183.5 Q372,184, 372.5,185 Q373,186, 373.5,186.5 Q374,187, 375,188 Q376,189, 378,189.5 Q380,190, 382,190.5 Q384,191, 385.5,191.5 Q387,192, 388,192.5 Q389,193, 390.5,193 Q392,193, 394,193 Q396,193, 397,193 Q398,193, 401,192 Q404,191, 406,190.5 Q408,190, 410,188.5 Q412,187, 414,186 Q416,185, 417,183 Q418,181, 419,180 Q420,179, 420,177 Q420,175, 421,173 Q422,171, 422,169.5 Q422,168, 422,167 Q422,166, 422,165.5 Q422,165, 422,164.5 Q422,164, 422,163.5 Q422,163, 422.5,163 Q423,163, 423.5,163 Q424,163, 424,163 Q424,163, 424.5,162.5 Q425,162, 425.5,161.5 Q426,161, 427,161" class="gptcmHgZ_7"></path>
<path d="M427,162 Q427,163, 427,164 Q427,165, 426.5,168.5 Q426,172, 425.5,175 Q425,178, 424.5,180 Q424,182, 423.5,184.5 Q423,187, 421.5,188.5 Q420,190, 419.5,191.5 Q419,193, 418,195 Q417,197, 416,199.5 Q415,202, 414,204.5 Q413,207, 412.5,209.5 Q412,212, 411.5,214.5 Q411,217, 410,218 Q409,219, 408.5,221 Q408,223, 406.5,224.5 Q405,226, 404,227 Q403,228, 401.5,230 Q400,232, 398.5,233.5 Q397,235, 396,236.5 Q395,238, 393.5,239 Q392,240, 390,242.5 Q388,245, 387.5,246 Q387,247, 385.5,248 Q384,249, 383.5,249.5 Q383,250, 382.5,250.5 Q382,251, 381,251.5 Q380,252, 379,253.5 Q378,255, 377,255 Q376,255, 375.5,256 Q375,257, 374.5,257 Q374,257, 373.5,257.5 Q373,258, 372.5,258 Q372,258, 372,258.5 Q372,259, 371,259 Q370,259, 369,259 Q368,259, 368,259 Q368,259, 367.5,259.5 Q367,260, 366,260 Q365,260, 364.5,260 Q364,260, 364,260.5 Q364,261, 363,261 Q362,261, 361.5,261 Q361,261, 360.5,261 Q360,261, 360,261 Q360,261, 359.5,261 Q359,261, 358.5,261 Q358,261, 357,261" class="gptcmHgZ_8"></path>
      </g><style data-made-with="vivus-instant">.gptcmHgZ_0{stroke-dasharray:111 113;stroke-dashoffset:112;animation:gptcmHgZ_draw_0 104200ms ease-out 0ms infinite,gptcmHgZ_fade 104200ms linear 0ms infinite;}.gptcmHgZ_1{stroke-dasharray:40 42;stroke-dashoffset:41;animation:gptcmHgZ_draw_1 104200ms ease-out 0ms infinite,gptcmHgZ_fade 104200ms linear 0ms infinite;}.gptcmHgZ_2{stroke-dasharray:83 85;stroke-dashoffset:84;animation:gptcmHgZ_draw_2 104200ms ease-out 0ms infinite,gptcmHgZ_fade 104200ms linear 0ms infinite;}.gptcmHgZ_3{stroke-dasharray:32 34;stroke-dashoffset:33;animation:gptcmHgZ_draw_3 104200ms ease-out 0ms infinite,gptcmHgZ_fade 104200ms linear 0ms infinite;}.gptcmHgZ_4{stroke-dasharray:20 22;stroke-dashoffset:21;animation:gptcmHgZ_draw_4 104200ms ease-out 0ms infinite,gptcmHgZ_fade 104200ms linear 0ms infinite;}.gptcmHgZ_5{stroke-dasharray:258 260;stroke-dashoffset:259;animation:gptcmHgZ_draw_5 104200ms ease-out 0ms infinite,gptcmHgZ_fade 104200ms linear 0ms infinite;}.gptcmHgZ_6{stroke-dasharray:173 175;stroke-dashoffset:174;animation:gptcmHgZ_draw_6 104200ms ease-out 0ms infinite,gptcmHgZ_fade 104200ms linear 0ms infinite;}.gptcmHgZ_7{stroke-dasharray:124 126;stroke-dashoffset:125;animation:gptcmHgZ_draw_7 104200ms ease-out 0ms infinite,gptcmHgZ_fade 104200ms linear 0ms infinite;}.gptcmHgZ_8{stroke-dasharray:133 135;stroke-dashoffset:134;animation:gptcmHgZ_draw_8 104200ms ease-out 0ms infinite,gptcmHgZ_fade 104200ms linear 0ms infinite;}@keyframes gptcmHgZ_draw{100%{stroke-dashoffset:0;}}@keyframes gptcmHgZ_fade{0%{stroke-opacity:1;}99.61612284069098%{stroke-opacity:1;}100%{stroke-opacity:0;}}@keyframes gptcmHgZ_draw_0{0.7677543186180422%{stroke-dashoffset: 112}2.6871401151631478%{ stroke-dashoffset: 0;}100%{ stroke-dashoffset: 0;}}@keyframes gptcmHgZ_draw_1{0.8877159309021113%{stroke-dashoffset: 41}2.8071017274472165%{ stroke-dashoffset: 0;}100%{ stroke-dashoffset: 0;}}@keyframes gptcmHgZ_draw_2{1.0076775431861804%{stroke-dashoffset: 84}2.927063339731286%{ stroke-dashoffset: 0;}100%{ stroke-dashoffset: 0;}}@keyframes gptcmHgZ_draw_3{1.1276391554702496%{stroke-dashoffset: 33}3.047024952015355%{ stroke-dashoffset: 0;}100%{ stroke-dashoffset: 0;}}@keyframes gptcmHgZ_draw_4{1.2476007677543186%{stroke-dashoffset: 21}3.166986564299424%{ stroke-dashoffset: 0;}100%{ stroke-dashoffset: 0;}}@keyframes gptcmHgZ_draw_5{1.3675623800383876%{stroke-dashoffset: 259}3.286948176583494%{ stroke-dashoffset: 0;}100%{ stroke-dashoffset: 0;}}@keyframes gptcmHgZ_draw_6{1.4875239923224568%{stroke-dashoffset: 174}3.4069097888675626%{ stroke-dashoffset: 0;}100%{ stroke-dashoffset: 0;}}@keyframes gptcmHgZ_draw_7{1.6074856046065258%{stroke-dashoffset: 125}3.5268714011516313%{ stroke-dashoffset: 0;}100%{ stroke-dashoffset: 0;}}@keyframes gptcmHgZ_draw_8{1.727447216890595%{stroke-dashoffset: 134}3.6468330134357005%{ stroke-dashoffset: 0;}100%{ stroke-dashoffset: 0;}}</style></svg>