<!--?xml version="1.0" encoding="UTF-8" standalone="no"?-->
<svg xmlns:dc="http://purl.org/dc/elements/1.1/" xmlns:cc="http://creativecommons.org/ns#" xmlns:rdf="http://www.w3.org/1999/02/22-rdf-syntax-ns#" xmlns:svg="http://www.w3.org/2000/svg" xmlns="http://www.w3.org/2000/svg" xmlns:sodipodi="http://sodipodi.sourceforge.net/DTD/sodipodi-0.dtd" xmlns:inkscape="http://www.inkscape.org/namespaces/inkscape" width="328.11093" height="132.74998" version="1.1" id="svg3851" sodipodi:docname="doodle.svg" inkscape:version="0.92.4 (5da689c313, 2019-01-14)" style="">
  <metadata id="metadata3857">
    <rdf:rdf>
      <cc:work rdf:about="">
        <dc:format>image/svg+xml</dc:format>
        <dc:type rdf:resource="http://purl.org/dc/dcmitype/StillImage"></dc:type>
        <dc:title></dc:title>
      </cc:work>
    </rdf:rdf>
  </metadata>
  <defs id="defs3855"></defs>
  <sodipodi:namedview pagecolor="#ffffff" bordercolor="#666666" borderopacity="1" objecttolerance="10" gridtolerance="10" guidetolerance="10" inkscape:pageopacity="0" inkscape:pageshadow="2" inkscape:window-width="2560" inkscape:window-height="1363" id="namedview3853" showgrid="false" inkscape:zoom="1.888" inkscape:cx="46.534685" inkscape:cy="-11.653009" inkscape:window-x="-9" inkscape:window-y="-9" inkscape:window-maximized="1" inkscape:current-layer="svg3851"></sodipodi:namedview>
  <g style="fill:none;stroke:#ffffff;stroke-width:10;stroke-linecap:round;stroke-linejoin:round" id="g3849" transform="translate(-103.96028,-133.25051)">
    <path d="m 187,146 q -2,-1 -2.5,-2 -0.5,-1 -4,-2 -3.5,-1 -6,-2 -2.5,-1 -4.5,-1 -2,0 -4,-0.5 -2,-0.5 -4.5,0 -2.5,0.5 -4.5,2 -2,1.5 -4,3.5 -2,2 -3.5,4 -1.5,2 -2.5,3.5 -1,1.5 -2,3 -1,1.5 -1.5,3 -0.5,1.5 -1.5,3 -1,1.5 -2,3.5 -1,2 -3,3.5 -2,1.5 -4,4.5 -2,3 -3.5,5 -1.5,2 -3.5,4 -2,2 -3,4 -1,2 -2.5,3 -1.5,1 -3,2.5 -1.5,1.5 -3,3.5 -1.5,2 -2.5,3.5 -1,1.5 -3,4.5" id="path3831" inkscape:connector-curvature="0" style="stroke:#ffffff" class="AOuIJjvt_0"></path>
    <path d="m 133,170 q 1,0 3,0 2,0 4,0.5 2,0.5 3.5,0.5 1.5,0 3,0.5 1.5,0.5 2.5,0.5 1,0 2,0 1,0 2.5,0.5 1.5,0.5 3,1 1.5,0.5 2,0.5 0.5,0 1,0 0.5,0 0.5,0 0,0 0.5,0.5 0.5,0.5 1,0.5 0.5,0 1,0 0.5,0 1,0 0.5,0 0.5,0 0,0 1,0 1,0 1.5,0 0.5,0 1,0 0.5,0 0.5,0 0,0 1,0 1,0 1.5,0 0.5,0 1.5,0" id="path3833" inkscape:connector-curvature="0" style="stroke:#ffffff" class="AOuIJjvt_1"></path>
    <path d="m 188,174 q 0,1 -1.5,4.5 -1.5,3.5 -3,7 -1.5,3.5 -2.5,6.5 -1,3 -2,5.5 -1,2.5 -1.5,4 -0.5,1.5 -0.5,2 0,0.5 0,0 0,-0.5 1.5,-2.5 1.5,-2 3.5,-6 2,-4 5,-8 3,-4 5,-6 2,-2 2.5,-2.5 0.5,-0.5 1,-1 0.5,-0.5 0.5,-0.5 0,0 1,0 1,0 2.5,0 1.5,0 3,0 1.5,0 3,0 1.5,0 1.5,0.5 0,0.5 0.5,0.5 0.5,0 0.5,0 0,0 0,0.5 0,0.5 0.5,0.5 0.5,0 1,1 0.5,1 1.5,2" id="path3835" inkscape:connector-curvature="0" style="stroke:#ffffff" class="AOuIJjvt_2"></path>
    <path d="m 218,179 q 0,0 -0.5,1 -0.5,1 -0.5,2 0,1 0,3 0,2 0,3 0,1 0,3.5 0,2.5 0,4.5 0,2 0,3.5 0,1.5 0,3 0,1.5 -0.5,1.5 -0.5,0 -0.5,-0.5 0,-0.5 3,-4.5" id="path3837" inkscape:connector-curvature="0" style="stroke:#ffffff" class="AOuIJjvt_3"></path>
    <path d="m 226,163 q 2,0 2,0 0,0 2,0 2,0 2,0 0,0 0.5,0 0.5,0 1,0 0.5,0 1,0 0.5,0 0.5,0 0,0 0,0.5 0,0.5 0,1 0,0.5 0,1.5 0,1 -0.5,1.5 -0.5,0.5 -0.5,1 0,0.5 -0.5,0.5 -0.5,0 -0.5,-0.5 0,-0.5 -0.5,-1 -0.5,-0.5 -0.5,-0.5 0,0 0,-1" id="path3839" inkscape:connector-curvature="0" style="stroke:#ffffff" class="AOuIJjvt_4"></path>
    <path d="m 260,184 q -1,-1 -2.5,-1 -1.5,0 -2.5,-1 -1,-1 -3.5,-1.5 -2.5,-0.5 -4.5,-0.5 -2,0 -4.5,0 -2.5,0 -6,1.5 -3.5,1.5 -5,2 -1.5,0.5 -2.5,2 -1,1.5 -2,2.5 -1,1 -2,3 -1,2 -1.5,3 -0.5,1 -0.5,4.5 0,3.5 0.5,5.5 0.5,2 1,2.5 0.5,0.5 2,2 1.5,1.5 2.5,2 1,0.5 2,1 1,0.5 1.5,1 0.5,0.5 2,0.5 1.5,0 2.5,0.5 1,0.5 3.5,0.5 2.5,0 4.5,-1 2,-1 4.5,-2 2.5,-1 3.5,-2.5 1,-1.5 3.5,-3.5 2.5,-2 3,-3.5 0.5,-1.5 2.5,-3 2,-1.5 4,-4 2,-2.5 4,-5 2,-2.5 3.5,-4.5 1.5,-2 3.5,-5.5 2,-3.5 3,-5.5 1,-2 1.5,-4.5 0.5,-2.5 0.5,-5 0,-2.5 0.5,-4.5 0.5,-2 0.5,-3.5 0,-1.5 0,-3.5 0,-2 0,-3.5 0,-1.5 0.5,-3 0.5,-1.5 0.5,-2.5 0,-1 0,-1.5 0,-0.5 0,-1 0,-0.5 0,0 0,0.5 0,1.5 0,1 -1,4 -1,3 -1.5,5 -0.5,2 -0.5,2.5 0,0.5 0,0.5 0,0 -0.5,0 -0.5,0 -0.5,1 0,1 0,1.5 0,0.5 0,1 0,0.5 0,0.5 0,0 -0.5,0.5 -0.5,0.5 -1,1.5 -0.5,1 -1,1.5 -0.5,0.5 -0.5,1 0,0.5 0,1 0,0.5 -0.5,1 -0.5,0.5 -0.5,1 0,0.5 0,1 0,0.5 0,1 0,0.5 0,1 0,0.5 0,1 0,0.5 0,1 0,0.5 -0.5,1 -0.5,0.5 -0.5,1.5 0,1 -0.5,1.5 -0.5,0.5 -0.5,1.5 0,1 -0.5,1.5 -0.5,0.5 -0.5,2 0,1.5 -0.5,2.5 -0.5,1 -1,2.5 -0.5,1.5 -1,3.5 -0.5,2 -0.5,3.5 0,1.5 0,2 0,0.5 -0.5,2.5 -0.5,2 -0.5,3 0,1 0,2 0,1 0.5,2.5 0.5,1.5 0.5,2 0,0.5 0.5,1 0.5,0.5 0.5,1.5 0,1 0,1.5 0,0.5 0,0.5 0,0 0,0.5 0,0.5 0.5,0.5 0.5,0 0.5,0.5 0,0.5 0,1 0,0.5 0,0.5 0,0 0.5,0.5 0.5,0.5 0.5,0.5 0,0 0.5,0.5 0.5,0.5 1,0.5 0.5,0 1,1 0.5,1 0.5,1 0,0 0.5,0 0.5,0 1,0.5 0.5,0.5 1,0.5 0.5,0 1,0 0.5,0 0.5,-0.5 0,-0.5 0,-1 0,-0.5 0,-1.5 0,-1 0,-1" id="path3841" inkscape:connector-curvature="0" style="stroke:#ffffff" class="AOuIJjvt_5"></path>
    <path d="m 322,183 q -2,0 -2.5,-0.5 -0.5,-0.5 -2,-0.5 -1.5,0 -2,0 -0.5,0 -2,0.5 -1.5,0.5 -2,0.5 -0.5,0 -1.5,0.5 -1,0.5 -3,1.5 -2,1 -3,2 -1,1 -2,1.5 -1,0.5 -1.5,1.5 -0.5,1 -0.5,1 0,0 -0.5,1.5 -0.5,1.5 -1.5,3.5 -1,2 -1.5,2.5 -0.5,0.5 -0.5,2 0,1.5 0,2 0,0.5 0,1.5 0,1 0,2 0,1 0,1 0,0 0,1.5 0,1.5 0,2.5 0,1 1,1.5 1,0.5 1,1 0,0.5 1,1.5 1,1 1.5,1.5 0.5,0.5 2,1.5 1.5,1 2,1.5 0.5,0.5 1,1 0.5,0.5 1,0.5 0.5,0 1,0 0.5,0 1.5,0 1,0 2,0 1,0 1.5,0 0.5,0 1.5,-0.5 1,-0.5 2,-1 1,-0.5 2,-1.5 1,-1 1.5,-1.5 0.5,-0.5 1.5,-1.5 1,-1 1.5,-2 0.5,-1 1,-1.5 0.5,-0.5 1.5,-2.5 1,-2 2,-3 1,-1 1,-2 0,-1 0.5,-2 0.5,-1 1,-2 0.5,-1 1,-2 0.5,-1 1,-2 0.5,-1 0.5,-2.5 0,-1.5 0.5,-3 0.5,-1.5 1,-3 0.5,-1.5 0.5,-2 0,-0.5 0,-1 0,-0.5 0,0.5 0,1 0,1.5 0,0.5 0.5,2.5 0.5,2 1,4 0.5,2 0.5,5 0,3 0.5,7 0.5,4 1,6 0.5,2 1,3 0.5,1 1,1.5 0.5,0.5 0.5,1 0,0.5 0.5,1.5 0.5,1 1,2.5 0.5,1.5 2,3 1.5,1.5 2,2.5 0.5,1 1.5,1 1,0 1,0.5 0,0.5 0.5,1 0.5,0.5 1.5,1 1,0.5 2,1 1,0.5 2,0.5 1,0 1.5,0 0.5,0 1.5,0 1,0 2,-2" id="path3843" inkscape:connector-curvature="0" style="stroke:#ffffff" class="AOuIJjvt_6"></path>
    <path d="m 371,139 q -1,4 -1.5,8 -0.5,4 -0.5,8.5 0,4.5 0,8.5 0,4 0,7.5 0,3.5 1,6.5 1,3 1,4 0,1 0.5,1.5 0.5,0.5 1,1.5 0.5,1 1,1.5 0.5,0.5 1.5,1.5 1,1 3,1.5 2,0.5 4,1 2,0.5 3.5,1 1.5,0.5 2.5,1 1,0.5 2.5,0.5 1.5,0 3.5,0 2,0 3,0 1,0 4,-1 3,-1 5,-1.5 2,-0.5 4,-2 2,-1.5 4,-2.5 2,-1 3,-3 1,-2 2,-3 1,-1 1,-3 0,-2 1,-4 1,-2 1,-3.5 0,-1.5 0,-2.5 0,-1 0,-1.5 0,-0.5 0,-1 0,-0.5 0,-1 0,-0.5 0.5,-0.5 0.5,0 1,0 0.5,0 0.5,0 0,0 0.5,-0.5 0.5,-0.5 1,-1 0.5,-0.5 1.5,-0.5" id="path3845" inkscape:connector-curvature="0" style="stroke:#ffffff" class="AOuIJjvt_7"></path>
    <path d="m 427,162 q 0,1 0,2 0,1 -0.5,4.5 -0.5,3.5 -1,6.5 -0.5,3 -1,5 -0.5,2 -1,4.5 -0.5,2.5 -2,4 -1.5,1.5 -2,3 -0.5,1.5 -1.5,3.5 -1,2 -2,4.5 -1,2.5 -2,5 -1,2.5 -1.5,5 -0.5,2.5 -1,5 -0.5,2.5 -1.5,3.5 -1,1 -1.5,3 -0.5,2 -2,3.5 -1.5,1.5 -2.5,2.5 -1,1 -2.5,3 -1.5,2 -3,3.5 -1.5,1.5 -2.5,3 -1,1.5 -2.5,2.5 -1.5,1 -3.5,3.5 -2,2.5 -2.5,3.5 -0.5,1 -2,2 -1.5,1 -2,1.5 -0.5,0.5 -1,1 -0.5,0.5 -1.5,1 -1,0.5 -2,2 -1,1.5 -2,1.5 -1,0 -1.5,1 -0.5,1 -1,1 -0.5,0 -1,0.5 -0.5,0.5 -1,0.5 -0.5,0 -0.5,0.5 0,0.5 -1,0.5 -1,0 -2,0 -1,0 -1,0 0,0 -0.5,0.5 -0.5,0.5 -1.5,0.5 -1,0 -1.5,0 -0.5,0 -0.5,0.5 0,0.5 -1,0.5 -1,0 -1.5,0 -0.5,0 -1,0 -0.5,0 -0.5,0 0,0 -0.5,0 -0.5,0 -1,0 -0.5,0 -1.5,0" id="path3847" inkscape:connector-curvature="0" style="stroke:#ffffff" class="AOuIJjvt_8"></path>
  </g>
<style data-made-with="vivus-instant">.AOuIJjvt_0{stroke-dasharray:111 113;stroke-dashoffset:112;animation:AOuIJjvt_draw_0 12400ms linear 0ms infinite,AOuIJjvt_fade 12400ms linear 0ms infinite;}.AOuIJjvt_1{stroke-dasharray:40 42;stroke-dashoffset:41;animation:AOuIJjvt_draw_1 12400ms linear 0ms infinite,AOuIJjvt_fade 12400ms linear 0ms infinite;}.AOuIJjvt_2{stroke-dasharray:83 85;stroke-dashoffset:84;animation:AOuIJjvt_draw_2 12400ms linear 0ms infinite,AOuIJjvt_fade 12400ms linear 0ms infinite;}.AOuIJjvt_3{stroke-dasharray:32 34;stroke-dashoffset:33;animation:AOuIJjvt_draw_3 12400ms linear 0ms infinite,AOuIJjvt_fade 12400ms linear 0ms infinite;}.AOuIJjvt_4{stroke-dasharray:20 22;stroke-dashoffset:21;animation:AOuIJjvt_draw_4 12400ms linear 0ms infinite,AOuIJjvt_fade 12400ms linear 0ms infinite;}.AOuIJjvt_5{stroke-dasharray:258 260;stroke-dashoffset:259;animation:AOuIJjvt_draw_5 12400ms linear 0ms infinite,AOuIJjvt_fade 12400ms linear 0ms infinite;}.AOuIJjvt_6{stroke-dasharray:173 175;stroke-dashoffset:174;animation:AOuIJjvt_draw_6 12400ms linear 0ms infinite,AOuIJjvt_fade 12400ms linear 0ms infinite;}.AOuIJjvt_7{stroke-dasharray:124 126;stroke-dashoffset:125;animation:AOuIJjvt_draw_7 12400ms linear 0ms infinite,AOuIJjvt_fade 12400ms linear 0ms infinite;}.AOuIJjvt_8{stroke-dasharray:133 135;stroke-dashoffset:134;animation:AOuIJjvt_draw_8 12400ms linear 0ms infinite,AOuIJjvt_fade 12400ms linear 0ms infinite;}@keyframes AOuIJjvt_draw{100%{stroke-dashoffset:0;}}@keyframes AOuIJjvt_fade{0%{stroke-opacity:1;}95.96774193548387%{stroke-opacity:1;}100%{stroke-opacity:0;}}@keyframes AOuIJjvt_draw_0{0%{stroke-dashoffset: 112}10.752688172043012%{ stroke-dashoffset: 0;}100%{ stroke-dashoffset: 0;}}@keyframes AOuIJjvt_draw_1{0.6720430107526881%{stroke-dashoffset: 41}11.4247311827957%{ stroke-dashoffset: 0;}100%{ stroke-dashoffset: 0;}}@keyframes AOuIJjvt_draw_2{1.3440860215053763%{stroke-dashoffset: 84}12.09677419354839%{ stroke-dashoffset: 0;}100%{ stroke-dashoffset: 0;}}@keyframes AOuIJjvt_draw_3{2.0161290322580645%{stroke-dashoffset: 33}12.768817204301078%{ stroke-dashoffset: 0;}100%{ stroke-dashoffset: 0;}}@keyframes AOuIJjvt_draw_4{2.6881720430107525%{stroke-dashoffset: 21}13.440860215053766%{ stroke-dashoffset: 0;}100%{ stroke-dashoffset: 0;}}@keyframes AOuIJjvt_draw_5{3.3602150537634405%{stroke-dashoffset: 259}14.112903225806454%{ stroke-dashoffset: 0;}100%{ stroke-dashoffset: 0;}}@keyframes AOuIJjvt_draw_6{4.032258064516129%{stroke-dashoffset: 174}14.78494623655914%{ stroke-dashoffset: 0;}100%{ stroke-dashoffset: 0;}}@keyframes AOuIJjvt_draw_7{4.704301075268816%{stroke-dashoffset: 125}15.456989247311828%{ stroke-dashoffset: 0;}100%{ stroke-dashoffset: 0;}}@keyframes AOuIJjvt_draw_8{5.376344086021505%{stroke-dashoffset: 134}16.129032258064516%{ stroke-dashoffset: 0;}100%{ stroke-dashoffset: 0;}}</style></svg>
